<svg width="37" height="23" viewBox="0 0 37 23" fill="none" xmlns="http://www.w3.org/2000/svg">
<rect width="37" height="23" fill="#1E1E1E"/>
<g clip-path="url(#clip0_0_1)">
<rect width="37" height="23" fill="white"/>
<rect x="7.05905" y="1.90712" width="4" height="19" fill="#D9D9D9"/>
<path d="M18.0515 12.8868C19.1144 12.8922 20.1366 12.32 20.8934 11.2962C21.6502 10.2724 22.0795 8.88076 22.0869 7.42747C22.0942 5.97418 21.6791 4.57826 20.9328 3.54681C20.1864 2.51536 19.1144 1.91252 18.0515 1.90712L18.0793 7.40712L18.0515 12.8868Z" fill="#D9D9D9"/>
<rect x="11.0591" y="1.90712" width="3" height="19" fill="#D9D9D9"/>
<rect x="14.0591" y="1.90712" width="4" height="11" fill="#D9D9D9"/>
<path d="M13.059 12.8596L16.5721 10.9469L21.5591 20.9071L17.059 20.9071L13.059 12.8596Z" fill="#D9D9D9"/>
<path d="M16.0591 3.90712C16.453 3.90712 16.8431 3.99765 17.2071 4.17354C17.5711 4.34943 17.9018 4.60724 18.1804 4.93225C18.4589 5.25725 18.6799 5.64309 18.8307 6.06773C18.9815 6.49237 19.0591 6.94749 19.0591 7.40712C19.0591 7.86675 18.9815 8.32187 18.8307 8.74651C18.6799 9.17115 18.4589 9.55699 18.1804 9.88199C17.9018 10.207 17.5711 10.4648 17.2071 10.6407C16.8431 10.8166 16.453 10.9071 16.0591 10.9071L16.0591 7.40712L16.0591 3.90712Z" fill="white"/>
<rect x="14.0591" y="3.90712" width="2" height="7" fill="white"/>
<rect x="21.3123" y="1.90712" width="3" height="19" fill="#D9D9D9"/>
<rect width="3" height="19" transform="matrix(-1 0 0 1 35.0591 1.90712)" fill="#D9D9D9"/>
<path d="M22.0591 1.90712L25.0591 1.90712L29.0591 10.9071L26.059 10.9071L22.0591 1.90712Z" fill="#D9D9D9"/>
<path d="M34.0591 1.90712L31.059 1.90712L27.0591 10.9071L30.059 10.9071L34.0591 1.90712Z" fill="#D9D9D9"/>
<path d="M1.55908 10.9071L5.55907 1.90713L9.05905 1.90713L5.05905 10.9071L1.55908 10.9071Z" fill="#D9D9D9"/>
</g>
<defs>
<clipPath id="clip0_0_1">
<rect width="37" height="23" fill="white"/>
</clipPath>
</defs>
</svg>
